<?xml version="1.0" encoding="utf-8"?>
<!-- Generator: Adobe Illustrator 26.0.3, SVG Export Plug-In . SVG Version: 6.00 Build 0)  -->
<svg version="1.1" id="Layer_1" xmlns="http://www.w3.org/2000/svg" xmlns:xlink="http://www.w3.org/1999/xlink" x="0px" y="0px"
	 viewBox="0 0 162 54" style="enable-background:new 0 0 162 54;" xml:space="preserve">
<style type="text/css">
	.st0{fill:#0F232D;}
	.st1{fill-rule:evenodd;clip-rule:evenodd;fill:#C2272C;}
	.st2{fill-rule:evenodd;clip-rule:evenodd;fill:#DB2B30;}
	.st3{fill:#DB2B30;}
</style>
<g>
	<g>
		<g>
			<path class="st0" d="M50.97,21.77h6.32c4.82,0,8.1,3.04,8.1,7.5c0,4.46-3.28,7.5-8.1,7.5h-6.32V21.77z M57.16,34.9
				c3.71,0,6.08-2.27,6.08-5.63c0-3.36-2.38-5.63-6.08-5.63h-4.05V34.9H57.16z"/>
			<path class="st0" d="M79.97,36.77l-3.24-4.61c-0.3,0.02-0.62,0.04-0.94,0.04h-3.71v4.56h-2.14v-15h5.85
				c3.9,0,6.26,1.97,6.26,5.23c0,2.31-1.2,3.98-3.3,4.73l3.56,5.03H79.97z M79.91,27c0-2.14-1.44-3.36-4.18-3.36h-3.64v6.75h3.64
				C78.47,30.38,79.91,29.14,79.91,27z"/>
			<path class="st0" d="M96.36,33.02h-7.97l-1.65,3.75h-2.21l6.79-15h2.12l6.81,15h-2.25L96.36,33.02z M95.61,31.31l-3.24-7.35
				l-3.24,7.35H95.61z"/>
			<path class="st0" d="M113.95,29.18h2.06v5.85c-1.5,1.26-3.58,1.91-5.68,1.91c-4.61,0-7.99-3.24-7.99-7.67
				c0-4.43,3.39-7.67,8.03-7.67c2.38,0,4.39,0.79,5.76,2.31l-1.33,1.33c-1.24-1.2-2.66-1.74-4.35-1.74c-3.47,0-5.98,2.42-5.98,5.76
				c0,3.3,2.51,5.76,5.96,5.76c1.26,0,2.44-0.28,3.51-0.96V29.18z"/>
			<path class="st0" d="M120.17,29.27c0-4.39,3.39-7.67,7.99-7.67c4.56,0,7.95,3.26,7.95,7.67s-3.39,7.67-7.95,7.67
				C123.55,36.94,120.17,33.66,120.17,29.27z M133.96,29.27c0-3.32-2.49-5.76-5.81-5.76c-3.36,0-5.85,2.44-5.85,5.76
				c0,3.32,2.49,5.76,5.85,5.76C131.48,35.03,133.96,32.59,133.96,29.27z"/>
			<path class="st0" d="M153.57,21.77v15h-1.76l-9-11.18v11.18h-2.14v-15h1.76l9,11.18V21.77H153.57z"/>
		</g>
		<g>
			<path class="st0" d="M50.97,42.52h0.35l1.19,2.99l1.19-2.99h0.35l-1.38,3.35h-0.35L50.97,42.52z"/>
			<path class="st0" d="M58.45,42.52h2.24v0.3h-1.91v1.2h1.71v0.3h-1.71v1.26h1.98v0.3h-2.31V42.52z"/>
			<path class="st0" d="M67.84,42.52h0.33v3.35h-0.35l-2.08-2.84v2.84h-0.33v-3.35h0.35l2.08,2.84V42.52z"/>
			<path class="st0" d="M72.59,42.51h2.55v0.3h-1.11v3.05h-0.33v-3.05h-1.11V42.51z"/>
			<path class="st0" d="M80.08,45.31c0.19,0.19,0.45,0.29,0.78,0.29c0.33,0,0.59-0.1,0.78-0.29c0.19-0.19,0.28-0.46,0.28-0.81v-1.99
				h0.33v1.99c0,0.43-0.12,0.78-0.37,1.02c-0.24,0.25-0.58,0.37-1.02,0.37c-0.43,0-0.78-0.12-1.02-0.37
				c-0.25-0.25-0.37-0.59-0.37-1.02v-1.99h0.33v1.99C79.8,44.85,79.9,45.12,80.08,45.31z"/>
			<path class="st0" d="M89.27,45.87l-0.72-1.09c-0.1,0.01-0.18,0.01-0.23,0.01h-0.92v1.08h-0.33v-3.35h1.25
				c0.42,0,0.74,0.1,0.97,0.29c0.23,0.19,0.34,0.47,0.34,0.82c0,0.28-0.07,0.51-0.2,0.7c-0.13,0.19-0.33,0.31-0.58,0.39l0.81,1.16
				H89.27z M88.32,44.49c0.32,0,0.57-0.07,0.74-0.22s0.26-0.36,0.26-0.63c0-0.27-0.09-0.47-0.26-0.61
				c-0.17-0.14-0.42-0.21-0.74-0.21h-0.92v1.67H88.32z"/>
			<path class="st0" d="M94.37,42.52h2.24v0.3H94.7v1.2h1.71v0.3H94.7v1.26h1.98v0.3h-2.31V42.52z"/>
			<path class="st0" d="M113.6,42.89c-0.18-0.07-0.36-0.11-0.55-0.11c-0.26,0-0.5,0.06-0.71,0.19c-0.22,0.12-0.39,0.29-0.51,0.51
				c-0.13,0.22-0.19,0.45-0.19,0.71c0,0.26,0.06,0.49,0.19,0.71c0.13,0.21,0.3,0.38,0.51,0.51c0.22,0.13,0.45,0.19,0.71,0.19
				c0.19,0,0.37-0.04,0.54-0.11s0.33-0.17,0.47-0.3l0.2,0.22c-0.17,0.15-0.36,0.28-0.57,0.36c-0.21,0.09-0.43,0.13-0.66,0.13
				c-0.32,0-0.61-0.08-0.87-0.23s-0.48-0.36-0.63-0.62s-0.23-0.55-0.23-0.86c0-0.31,0.08-0.59,0.24-0.85
				c0.16-0.26,0.37-0.46,0.64-0.62c0.27-0.15,0.56-0.23,0.88-0.23c0.23,0,0.45,0.04,0.66,0.13c0.21,0.08,0.4,0.2,0.56,0.35
				l-0.2,0.23C113.93,43.07,113.78,42.97,113.6,42.89z"/>
			<path class="st0" d="M121.32,45.87l-0.4-0.89h-1.86l-0.39,0.89h-0.35l1.51-3.35h0.35l1.51,3.35H121.32z M119.19,44.68h1.6
				l-0.81-1.81L119.19,44.68z"/>
			<path class="st0" d="M128.27,42.81c0.23,0.19,0.34,0.47,0.34,0.82c0,0.37-0.11,0.65-0.34,0.85c-0.23,0.2-0.55,0.3-0.96,0.3h-0.91
				v1.08h-0.33v-3.35h1.24C127.72,42.52,128.04,42.62,128.27,42.81z M128.03,44.27c0.17-0.15,0.26-0.36,0.26-0.63
				c0-0.27-0.09-0.47-0.26-0.61c-0.17-0.14-0.42-0.21-0.74-0.21h-0.89v1.67h0.89C127.61,44.49,127.86,44.42,128.03,44.27z"/>
			<path class="st0" d="M133.11,42.52h0.33v3.35h-0.33V42.52z"/>
			<path class="st0" d="M137.85,42.51h2.55v0.3h-1.11v3.05h-0.33v-3.05h-1.11V42.51z"/>
			<path class="st0" d="M147.01,45.87l-0.4-0.89h-1.86l-0.39,0.89H144l1.51-3.35h0.35l1.51,3.35H147.01z M144.88,44.68h1.6
				l-0.81-1.81L144.88,44.68z"/>
			<path class="st0" d="M151.76,42.52h0.33v3.05h1.48v0.3h-1.81V42.52z"/>
		</g>
	</g>
	<g>
		<g>
			<path class="st1" d="M17.53,0c0.25,0.17,0.48,0.36,0.8,0.49c0.47,0.19,1.02,0.18,1.38,0.45c0.39,0.29,0.56,0.63,0.78,1.09
				c0.95,1.35,2.61,1.37,1.8,1.3c-2.62-0.24-7.85-0.7-9.24,1.02c-0.48,0.59-0.98,0.97-1.24,1.72c-0.86,2.44-0.1,4.97,1.07,6.67
				c-0.73,0.02-1.82-0.04-2.3-0.35c0.19-0.29,0.27-0.74,0.25-1.19c-0.01-0.28-0.04-0.64-0.27-0.78c-0.13,0.12-0.12,0.34-0.12,0.53
				c0.02,0.47-0.03,0.96-0.23,1.27c-0.12-0.37-0.14-0.76-0.31-1.13c-0.15-0.33-0.37-0.67-0.31-1.25c0.04-0.41,0.36-0.72,0.49-1.13
				c0.1-0.31,0.17-0.65,0.04-0.93c-0.2,0.12-0.25,0.37-0.33,0.56C9.54,8.95,9.15,9.5,8.73,9.95C9.04,8.7,8.7,7.63,9.43,6.56
				c0.3-0.45,0.94-0.61,1.11-1.15c-0.31-0.06-0.58,0.15-0.88,0.23C9.36,5.74,9.04,5.79,8.65,5.8C9.1,5.42,9.5,5.12,9.9,4.71
				c0.12-0.12,0.22-0.29,0.35-0.41c0.45-0.39,1.35-0.18,1.62-0.74c-0.26-0.36-0.8-0.08-1.27,0C10.28,3.62,10,3.63,9.74,3.6
				c0.39-0.18,0.84-0.34,1.23-0.64c0.38-0.29,0.66-0.65,1.23-0.7c0.51-0.05,0.94,0.08,1.27,0.06C13.69,2.3,14,2.21,14.01,2.01
				c0.01-0.13-0.21-0.25-0.43-0.27c-0.69-0.06-1.31-0.03-1.93-0.23c0.08,0.03,0.29-0.07,0.38-0.1c0.13-0.04,0.26-0.09,0.39-0.13
				c0.25-0.09,0.5-0.19,0.76-0.28c0.48-0.15,1-0.21,1.49-0.08c0.3,0.08,0.55,0.27,0.78,0.39c0.13,0.07,0.59,0.19,0.66-0.02
				c0.05-0.13-0.21-0.39-0.31-0.47c-0.41-0.33-1.14-0.55-1.75-0.7c1.1-0.1,2.45,0.19,3.27,0.66c0.25,0.18,0.44,0.61,0.88,0.47
				C18.17,0.72,17.76,0.4,17.53,0z"/>
			<path class="st1" d="M23.78,3.27c-0.07-0.36-0.47-0.53-0.68-0.84c-0.28-0.4-0.4-0.89-0.41-1.44c0.21,0.5,0.5,0.92,0.88,1.27
				c0.63,0.58,1.51,0.99,1.85,1.87c0.07,0.19,0.02,0.51-0.12,0.93c-1.21-0.82-2.93-0.98-4.39-1.6C20.7,3.37,20.08,1.3,20.28,1.6
				c0.18,0.27,0.32,0.28,0.23,0.13c-0.17-0.28-0.29-0.77-0.35-1.05c-0.01-0.03,0.02-0.04,0.02-0.02c0.5,0.64,1.47,0.67,1.99,1.23
				c0.21,0.23,0.34,0.53,0.56,0.76C23,2.92,23.29,3.2,23.78,3.27z"/>
			<path class="st1" d="M29,45.64c-0.52,0.1-1.14,0.22-1.52,0.53c0.73,0.08,1.38,0.08,2.08,0.25c1.23,0.3,2.29,1.3,3.68,0.66
				c-0.42,0.83-2.06,0.5-3.02,0.39c0.11,0.19,0.32,0.25,0.49,0.35c1.37,0.84,2.49,1.92,2.71,3.86c-0.16-0.15-0.2-0.43-0.41-0.53
				c-0.18,0.16-0.18,0.42-0.21,0.62c-0.13,0.74-0.32,1.28-0.82,1.67c-0.56,0.45-1.42,0.62-2.22,0.53c0.65-0.19,1.4-0.39,1.48-1.09
				c-0.16,0.05-0.27,0.18-0.39,0.27c-0.41,0.32-0.99,0.6-1.66,0.51c-0.46-0.07-0.82-0.3-1.15-0.56c-0.8-0.63-1.55-1.25-2.63-1.62
				c-0.2-0.07-0.41-0.09-0.6-0.19c0.85-0.18,1.72,0.17,2.4,0.53c0.62,0.33,1.09,0.81,1.95,0.92c0.61,0.07,1.37-0.03,1.83-0.58
				c0.13-0.29,0.28-0.51,0.27-0.9c-0.01-0.98-1.17-1.49-2.18-1.6c0.59,0.52,1.38,1.1,1.23,2.18c-0.28-0.74-0.95-1.2-1.58-1.62
				c-0.63-0.42-1.4-0.81-2.26-0.86c0.12,0.29,0.44,0.39,0.68,0.56c-0.39,0.02-0.77-0.1-1.13-0.21c-1.03-0.32-1.94-0.91-2.57-1.64
				c-0.69-1.02,0.02-0.99,0.82-1.54c0.31-0.3,0.81-0.46,1.3-0.62C26.59,45.58,27.96,45.26,29,45.64z"/>
			<path class="st1" d="M18.15,24.28c-0.06-0.26,0.06-0.73,0.06-0.84c0-0.15,0.13-0.33,0.14-0.45c0.02-0.21-0.12-0.34-0.19-0.53
				c0.59,0.15,0.91,0.69,1.4,1.03c0.3,0.21,0.62,0.44,1.03,0.45c0.07-0.17-0.08-0.28-0.1-0.43c0.61,0.07,0.98,0.35,1.36,0.66
				c0.19,0.15,0.39,0.39,0.68,0.39c0.16-0.36-0.18-0.79-0.29-1.03c0.91-0.06,1.33,0.73,1.58,1.44c0.12,0.36,0.21,0.81,0.62,0.95
				c0.12-0.07,0.19-0.13,0.21-0.29c0.1-0.62-0.38-1.4-0.74-1.75c0.61,0.29,1.1,0.75,1.5,1.32c0.4,0.57,0.49,1.36,1.03,1.81
				c0.12-0.22-0.01-0.5-0.1-0.74c-0.09-0.24-0.19-0.5-0.29-0.7c0.08-0.04,0.14,0.1,0.21,0.18c0.35,0.36,0.75,0.75,1.17,1.07
				c0.17,0.13,0.38,0.23,0.53,0.37c0.31,0.3,0.42,0.73,0.76,0.99c0.1-0.14-0.08-0.52-0.06-0.7c0.39,0.11,1.53-0.14,1.07-0.78
				c-0.4,0.11-0.7,0.64-1.17,0.39c0.06-0.12,0.16-0.19,0.25-0.27c0.44-0.88-0.05-1.86-0.51-2.65c-0.04,0.57,0.29,1.12,0.14,1.87
				c-0.11-0.06-0.1-0.19-0.14-0.29c-0.17-0.44-0.38-0.88-0.6-1.29c-0.22-0.4-0.45-0.83-0.84-1.05c0.06,0.51,0.57,1.01,0.43,1.6
				c-0.21-0.52-0.51-1.05-0.92-1.42c-0.15-0.14-0.38-0.21-0.53-0.37c-0.16-0.17-0.3-0.42-0.47-0.72c-0.09-0.16-0.32-0.7-0.55-0.55
				c-0.22,0.14,0.12,0.61,0.19,0.74c0.14,0.28,0.24,0.51,0.27,0.78c-0.32-0.37-0.56-0.72-0.95-1.01c-0.12-0.09-0.27-0.13-0.41-0.23
				c-0.63-0.46-0.73-1.56-1.67-1.69c0.17,0.46,0.72,0.72,0.6,1.34c-0.25-0.39-0.58-0.73-1.05-0.97c-0.24-0.12-0.49-0.18-0.7-0.31
				c-0.39-0.23-0.62-0.52-0.84-0.97c-0.1-0.2-0.2-0.57-0.47-0.41c-0.06,0.11-0.02,0.23,0.02,0.35c-0.55-0.54-1.62-0.46-2.32-0.86
				c0.36-0.19,1.12-0.53,1.32-0.9c0.18-0.04,0.75,0.14,0.77,0.14c2.32,1.05,4.06,1.73,6.36,3.21c1.04,0.67,1.99,1.38,2.95,2.23
				c0.9,0.8,2.3,2.55,2.48,3.92c0.13,0.96-1.39,2.5-2.34,2.49c-0.49,0-1.04-0.33-1.48-0.55c-1.35-0.67-2.55-1.59-3.76-2.38
				C22.13,25.78,20.36,24.82,18.15,24.28z"/>
			<path class="st1" d="M20.15,28.19c-1.4-0.15-2.13,0.6-2.61,1.88c-1.32,3.49,3.02,4.36,2.66,5.98c-2.41,0.06-5.43-1.09-5.75-3.35
				c-0.13-0.95-0.29-2.32,0.15-3.01c0.45-0.72,1.15-1.75,2.22-1.82C17.11,27.84,19.73,28.17,20.15,28.19z"/>
			<path class="st1" d="M14.5,26.18L13.96,27l-0.29,8.18l3.58,1.78l14.58-1.49c0,0,8.39,7.89-1.13,6.59s-10.5,2.84-10.94,2.66
				c-0.44-0.18-0.38-2.3-0.38-2.3c0.05-0.69,0.36-1.2,0.7-1.54c-0.19-0.02-0.36,0.15-0.56,0.18c0.27-0.58,1.04-0.65,1.5-1.03
				c-0.09-0.09-0.27-0.09-0.41-0.08c0.63-0.51,1.38-0.29,2.06-0.31c-0.01-0.1-0.24-0.14-0.29-0.25c0.51-0.32,1.35-0.03,1.93,0.1
				c0.01-0.11-0.15-0.22-0.23-0.29c0.53-0.08,1.15,0.07,1.6,0.33c0.28,0.16,0.5,0.38,0.74,0.55c0.08-0.34-0.33-0.62-0.55-0.86
				c0.93-0.12,1.44,0.43,1.97,0.88c0.12,0.1,0.48,0.43,0.56,0.18c0.03-0.09-0.06-0.2-0.1-0.25c-0.17-0.23-0.55-0.43-0.7-0.6
				c0.37-0.01,0.71,0.1,1.02,0.29c0.23,0.14,0.44,0.31,0.67,0.45c0.11,0.07,0.23,0.15,0.36,0.2c0.16,0.06,0.1-0.14,0.05-0.21
				c-0.04-0.08-0.11-0.14-0.19-0.19c-0.08-0.05-0.16-0.09-0.25-0.13c-0.03-0.01-0.21-0.13-0.23-0.12c0.44-0.18,0.76,0.22,1.38,0.18
				c0.2-0.02,0.44-0.08,0.6-0.16c0.26-0.13,0.62-0.37,0.6-0.78c-0.35,0.01-0.27,0.44-0.74,0.33c0.05-0.13,0.19-0.26,0.21-0.45
				c0.07-0.5-0.43-0.99-0.84-1.07c-0.1,0.2,0.08,0.43,0.12,0.62c-0.22-0.08-0.39-0.18-0.55-0.31c-0.33-0.29-0.49-0.76-0.93-0.93
				c-0.2,0.2,0.07,0.46,0.14,0.64c-0.48-0.09-0.74-0.48-1.34-0.29c0.11,0.23,0.46,0.23,0.7,0.33c-0.69,0.74-1.69-0.17-2.55,0.1
				c0.42,0.02,0.95,0.21,1.27,0.47c-0.29,0.05-0.56,0-0.86,0.06c-0.36,0.06-0.62,0.24-1.07,0.19c-0.65-0.07-1.16-0.62-1.83-0.43
				c0.18,0.37,0.67,0.44,1.07,0.6c-0.72-0.02-1.3,0.25-2.06,0.12c-0.26-0.04-0.48-0.15-0.7-0.25c-0.19-0.09-0.44-0.24-0.66-0.08
				c0.16,0.38,0.66,0.41,0.99,0.62c-1.21,0.16-0.91,0.2-1.59,0.07c-0.13-0.03-1.35-0.4-1.53-0.04l0,0c0.1,0.14,0.32,0.15,0.51,0.17
				c0.47,0.03,0.95,0.12,1.24,0.35c-0.38,0.09-0.77,0.07-1.15,0.2c-0.34,0.12-0.71,0.3-1.27,0.19c-0.4-0.08-0.69-0.42-1.08-0.59
				c-0.3-0.13-0.63-0.23-0.93-0.13c0.1,0.21,0.34,0.29,0.53,0.38c0.59,0.3,1.1,0.74,1.51,1.2c-1.21-0.43-2.31-0.19-3.31-1.02
				c-0.42-0.34-0.51-0.99-1.04-1.21c-0.09,0.3,0.09,0.59,0.15,0.89c0.06,0.31,0.08,0.64,0.06,1.02c-0.33-0.48-0.6-0.91-0.97-1.34
				c-0.11-0.13-0.27-0.24-0.37-0.39c-0.35-0.48-0.05-1.36-0.58-1.68c-0.38,0.22-0.16,0.79-0.12,1.26c0.03,0.32,0.01,0.6-0.04,0.86
				c-0.15-0.41-0.26-0.87-0.52-1.28c-0.26-0.4-0.58-0.72-0.58-1.29c0-0.51,0.16-0.93,0.18-1.25c0.01-0.23-0.06-0.54-0.26-0.57
				c-0.12-0.02-0.27,0.19-0.31,0.4c-0.12,0.69-0.15,1.3-0.42,1.9c0.03-0.08-0.04-0.3-0.06-0.38c-0.03-0.14-0.06-0.27-0.1-0.4
				c-0.07-0.26-0.14-0.52-0.2-0.78c-0.11-0.49-0.11-1.01,0.07-1.49c0.11-0.29,0.32-0.52,0.46-0.74c0.08-0.13,0.25-0.57,0.04-0.66
				c-0.13-0.06-0.41,0.18-0.49,0.27C9.46,33.5,9.17,34.2,8.96,34.8c0-0.93-0.03-1.51,0.38-2.26c0.12-0.21,0.65-0.76,0.81-0.94
				c0.12-0.14,0.1-0.33,0.03-0.47l0,0c-0.26,0.02-0.34,0.28-0.49,0.43c-0.16,0.16-0.36,0.26-0.58,0.37c0.09-0.27,0.18-0.52,0.25-0.8
				c0.07-0.28,0.06-0.56,0.1-0.82c0.02-0.1,0.05-0.25,0.1-0.33c0.27-0.47,1.03-0.45,1.07-1.09c-0.37,0.09-0.72,0.37-1.23,0.41
				c-0.04-0.08,0.08-0.12,0.12-0.16C9.7,28.97,9.85,28.8,10,28.57c0.19-0.3,0.25-0.65,0.41-0.97c0.16-0.31,0.41-0.57,0.7-0.72
				c0.29-0.15,0.64-0.25,0.82-0.58c-0.46,0.03-0.96,0.21-1.4,0.06c0.29-0.23,0.64-0.36,0.95-0.64c0.3-0.26,0.46-0.63,0.72-0.86
				c0.13-0.11,0.39-0.25,0.53-0.27c0.35-0.05,1.23,0.47,1.23,0.47L14.5,26.18z"/>
			<path class="st1" d="M31.47,33.76c0,0,7.22-0.41,7.65-5.94h0c-0.11-2.24-1.06-4.66-2.53-6.03c-2.61-2.44-4.94-4.52-9.23-6.31
				S13.69,9.9,18.55,5.57c0.97-0.74,3.45,0.29,2.64-0.39c-1.86-1.57-6.74,0.57-6.88,2.58c-0.08,1.2,0.02,2.33,0.62,3.06
				c0.69,0.85,2.09,1.77,2.98,2.33c0.92,0.58,2.15,1.23,3.21,1.64c1.66,0.64,3.2,1.56,4.62,2.34c0.48,0.27,0.94,0.72,1.39,1.01
				c2.71,1.75,5.12,3.45,6.95,5.99c1.24,1.73,2.34,3.4,1.81,5.66L31.47,33.76"/>
		</g>
		<g>
			<path class="st2" d="M8.79,14.72c0.66,0.97,3.3,0.98,3.64,0.94c2.08-0.18,1.07-1.1,0.4-1.35c-0.69-0.31-3.8,0.2-3-0.13
				c0.98-0.41-0.39-1.5-0.68-1.83c-0.29-0.33-0.33-0.72-0.31-1.09c0.1,0.25,0.23,0.53,0.41,0.72c0.66,0.7,1.95,1.15,3.1,1.13
				c0.58-0.01,1.14,0,1.67,0.1c0.53,0.1,1.04,0.29,1.56,0.35c0.16,0.02,0.37,0.02,0.45-0.1c-0.14-0.49-0.64-0.62-1.01-0.88
				c1.05,0.04,1.81,0.76,2.32,1.48c0.31,0.44,0.51,1.04,1.05,1.25c0.1-0.58-0.35-1.07-0.56-1.54c0.27,0.1,0.44,0.3,0.66,0.45
				c0.78,0.86,0.9,2.63,0.06,3.52c-0.77,0.82-2.18,1.3-3.5,1.29c-0.45-0.01-0.95-0.07-1.3-0.29c-0.44-0.28-0.8-0.79-1.19-1.21
				c-0.26-0.27-0.68-0.59-0.64,0.18c0.02,0.35,0.23,0.73,0.41,1.01c0.17,0.27,0.41,0.56,0.64,0.8c0.44,0.46,1.05,1.06,1.75,1.13
				c0.83,0.09,1.46-0.44,1.83-1.01c0.09-0.13,0.26-0.48,0.49-0.47c0.21,0.01,0.34,0.31,0.49,0.43c0.27,0.2,0.82,0.33,1.21,0.27
				c0.26-0.04,0.34-0.19,0.58-0.29c0.22,0.23,0.58,0.58,0.43,0.99c0.14,0.55,0.55,1.41,0.37,2.04c-0.03,0.12-0.11,0.25-0.25,0.29
				c0.14-0.9-0.8-1.17-0.8-2.04c-0.14,0.13-0.35,0.41-0.21,0.58c-0.48,0.17-0.61-0.33-0.66-0.72c-0.44,0.34-1.18,0.64-1.97,0.58
				c0.29,0.51,0.52,1.06,1.11,1.32c0.21,0.09,0.64,0.1,0.7,0.37c0.04,0.16-0.09,0.48-0.12,0.66c-0.03,0.21-0.08,0.46-0.06,0.68
				c0.01,0.14,0.06,0.24,0.04,0.39c-0.18,1-1.26,1.66-2.26,1.38c0.38-0.14,0.75-0.3,1.05-0.53c0.29-0.22,0.58-0.49,0.6-0.92
				c-0.31,0.04-0.4,0.29-0.64,0.39c-0.03-0.59-0.03-1.11-0.25-1.58c-0.43-0.16-0.54-0.63-0.7-1.05c-0.3,0.2-0.51,0.54-0.6,1.01
				c-0.1,0.54-0.09,1.39-0.82,1.32c-0.35-0.03-0.63-0.26-0.97-0.35c-0.22-0.06-0.48,0-0.66-0.08c-0.54-0.23-0.77-1.11-0.8-1.6
				c-0.01-0.19-0.02-0.47,0.21-0.6c-0.01,0.43,0.18,0.7,0.41,0.99c0.11,0.14,0.38,0.51,0.55,0.53c0.2,0.02,0.4-0.27,0.62-0.27
				c0.22,0,0.31,0.19,0.55,0.19c0.19-0.42-0.05-1.14-0.31-1.52c-0.11-0.05-0.16-0.16-0.31-0.16c-0.16,0-0.36,0.13-0.55,0.14
				c-0.83,0.04-1.39-0.56-1.79-1.25c0.51,0.28,1.43,0.73,2.18,0.39c-0.21-0.28-0.53-0.24-0.76-0.37c-0.43-0.24-0.78-0.72-1.09-1.15
				c-0.16-0.22-0.32-0.46-0.53-0.58c-0.37-0.23-0.74-0.21-1.23-0.31c-0.38-0.08-0.75-0.3-1.05-0.51c-0.31-0.21-0.79-0.56-0.97-0.87
				c0.4,0.13,0.95,0.33,1.32,0.25C7.98,16.74,9.33,16.07,8.79,14.72z"/>
			<path class="st2" d="M41.37,25.72c0.28-0.73,0.17-1.78-0.12-2.57c-0.12-0.34-0.32-0.61-0.18-0.99c-0.28,0.05-0.52,0.25-0.78,0.08
				c-0.35-0.23-0.19-0.73-0.43-0.95c-0.35-0.33-1.45-0.23-1.56,0.39c-0.09,0.5,0.2,0.91,0.45,1.19c0.14,0.16,0.3,0.3,0.45,0.39
				c0.25,0.15,0.68,0.17,0.86,0.43c0.17,0.25,0.13,0.64,0.27,0.95c0.06,0.14,0.3,0.32,0.31,0.45c0.03,0.3-0.36,0.45-0.39,0.68
				c0.04,0.11,0.18,0.11,0.27,0.16c0.25,0.42,0.03,0.94-0.19,1.34c-0.13,0.23-0.26,0.47-0.41,0.56c0.16-0.67,0.14-1.12-0.04-1.67
				c-0.95-0.13-0.19-1.77-1.09-1.97c-0.53-1.19-1.26-2.19-2.2-2.98c0.17-0.1,0.38-0.13,0.56-0.19c0.54-0.18,1.06-0.41,1.34-0.88
				c0.05-0.31,0.17-0.63,0.51-0.43c0.16,0.1,0.3,0.27,0.49,0.39c0.23,0.15,0.53,0.35,0.88,0.39c0.37,0.04,0.79-0.2,0.88,0.21
				c0.01,0.07-0.03,0.21-0.02,0.31c0.04,0.52,0.43,0.92,0.58,1.4c0.08,0.24,0.09,0.57,0.12,0.88
				C42.01,24.11,42.04,25.35,41.37,25.72z"/>
			<path class="st3" d="M41.87,9.74c0.38-0.33,0.66-0.67,0.78-1.17c0.26-1.1-0.39-2.05-1.46-2.16c-0.9-0.09-1.6,0.65-2.49,0.72
				c-0.58,0.05-0.93-0.07-1.17-0.41c-0.2-0.29-0.23-0.66-0.39-0.97c-0.16-0.3-0.36-0.5-0.64-0.74c-0.63-0.31-1.28-0.22-1.83,0.02
				c-0.32,0.14-0.59,0.35-0.93,0.35c-0.23,0-0.39-0.14-0.51-0.12c0.16,0.18,0.43,0.39,0.72,0.35c0.19-0.02,0.36-0.14,0.56-0.19
				c0.57-0.16,1.31-0.2,1.73,0.16c0.29,0.24,0.35,0.68,0.53,1.07c0.16,0.36,0.38,0.69,0.7,0.9c0.86,0.55,1.9,0.05,2.77-0.29
				c0.54-0.21,1.52-0.34,1.81,0.25c0.27,0.54,0.16,1.37-0.58,1.44c-0.02-0.28-0.04-0.55-0.23-0.66c0.01,0.14,0.08,0.55-0.16,0.56
				c-0.13,0.01-0.29-0.27-0.41-0.37c-0.45-0.35-1.14-0.36-1.52-0.02c-0.17,0.15-0.23,0.43-0.35,0.51c-0.34,0.21-0.73-0.18-1.05-0.08
				c-0.17,0.05-0.3,0.32-0.49,0.33c-0.22,0.02-0.38-0.27-0.64-0.37c-0.23-0.09-0.51-0.08-0.51-0.31c0-0.19,0.27-0.26,0.37-0.43
				c0.09-0.15,0.1-0.38,0.08-0.55c-0.06-0.46-0.4-0.94-0.7-1.29C36,6.54,36.1,7.41,35.62,7.42c-0.2,0.01-0.34-0.25-0.49-0.29
				c-0.3-0.08-0.56-0.2-0.78-0.39c-0.12-0.1-0.2-0.25-0.31-0.35c-0.34-0.29-0.85-0.31-1.3-0.43c-0.05-0.01-0.15-0.05-0.19-0.08
				c-0.26-0.14-0.28-0.37-0.39-0.64C32,4.86,31.72,4.57,31.47,4.32c-0.27-0.27-0.55-0.52-0.86-0.74c-0.06-0.04-0.22-0.19-0.25-0.14
				c0.21,0.25,0.46,0.62,0.6,0.97c0.09,0.22,0.2,0.5,0.08,0.7c-0.43-0.29-0.77-0.67-1.17-1.01c-1.02-0.87-2.05-1.75-3.17-2.43
				c0.86,0.91,1.58,1.93,2.3,2.98c0.24,0.34,0.54,0.73,0.55,1.19C29.3,5.9,29.14,5.68,29,5.55c-0.32-0.29-0.6-0.57-0.88-0.88
				c-0.14-0.15-0.23-0.35-0.41-0.43c0.2,0.44,0.47,0.9,0.51,1.44c-1.02-1.25-1.88-2.68-3.56-3.27c1.03,1.02,2.1,2.16,2.38,3.82
				c0.49,0.1,1.12,0.16,1.52,0.41c0.09,0.06,0.27,0.21,0.25,0.33c-0.02,0.19-0.33,0.21-0.58,0.19c-1.26-0.08-2.19-1.2-2.3-2.57
				c-0.54,1.22,0.33,2.49,1.42,2.88c-0.26,0-0.35,0.03-0.6,0.04c0.36,0.23,0.73,0.42,1.1,0.64c0.24,0.14,0.49,0.27,0.7,0.45
				c0.13,0.11,0.48,0.39,0.42,0.59c-0.04,0.12-0.23,0.15-0.31,0.14c-0.55-0.1-1.17-0.93-1.48-1.23c-0.03,0.06,0.1,0.23,0.06,0.31
				c-0.2-0.01-0.34-0.25-0.53-0.33c0.08,0.18,0.4,0.4,0.23,0.64c-0.47-0.12-0.68-0.5-0.99-0.78c0.46,1.15,1.22,2,2.26,2.57
				c-0.63,0.09-1.24-0.26-1.69-0.62c-0.68-0.55-1.16-1.3-1.75-1.91c-0.3-0.31-0.62-0.64-1.03-0.76c0.88,0.48,1.38,1.46,1.93,2.4
				c0.51,0.87,1.3,1.77,2.63,1.67c0.1-0.01,0.33-0.09,0.49,0c-0.07,0.3-0.41,0.45-0.51,0.8c-0.08,0.31-0.01,0.7,0.14,0.93
				c0.12-0.59,0.47-1.14,1.11-1.07c-0.09,0.25-0.2,0.52-0.18,0.78c0.03,0.31,0.26,0.69,0.51,0.76c-0.23-0.56,0.07-1.14,0.6-0.93
				c0.57,0.22,1.06,1,1.64,1.15c-0.04-0.14-0.34-0.32-0.23-0.56c0.07-0.15,0.39-0.16,0.6-0.14c1.44,0.15,2.72,1.75,2.43,3.31
				c0.25-0.01,0.14-0.56,0.39-0.64c0.2,0.21,0.39,0.68,0.27,1.05c-0.14,0.44-0.7,0.38-1.11,0.27c0.12,0.31,0.5,0.39,0.86,0.39
				c0.13,0,0.26-0.06,0.33,0.04c-0.08,0.19-0.26,0.28-0.39,0.43c0.62-0.01,1.08-0.19,1.44-0.47c-0.01,0.38-0.27,0.52-0.43,0.76
				c0.4-0.1,0.69-0.31,0.88-0.6c0.12-0.18,0.14-0.43,0.33-0.56c0.18,0.09,0.22,0.28,0.21,0.51c0.28-0.25,0.12-0.88-0.02-1.17
				c0.17-0.36,0.23-0.85,0.16-1.27c-0.02-0.12-0.08-0.31-0.14-0.33c0.07,0.41-0.19,0.82-0.56,0.92c-0.19-0.41-0.15-1.05-0.47-1.52
				c-0.16-0.24-0.57-0.45-0.56-0.82c0.01-0.68,1.09-0.18,1.32,0c-0.14-0.78-1.15-1.15-2.16-0.93c-0.63-0.2-1.07-0.58-1.27-1.21
				c0.47,0.23,0.97,0.34,1.5,0.33c0.3-0.01,0.72-0.13,1.09-0.04c0.71,0.17,0.82,0.78,1.44,1.01c-0.08-0.18-0.33-0.43-0.25-0.76
				c0.11-0.45,0.55-0.02,0.8,0.08c0.16,0.06,0.44,0.14,0.68,0.1c0.14-0.03,0.41-0.24,0.6-0.19c0.27,0.06,0.23,0.55,0.23,0.76
				c0.01,0.2,0.03,0.41,0,0.6c0.14-0.1,0.28-0.32,0.37-0.53c0.09-0.21,0.19-0.48,0.21-0.7c0.03-0.29,0.03-0.75,0.33-0.76
				c0.16,0,0.35,0.29,0.43,0.41c0.13,0.2,0.18,0.38,0.31,0.53c0.08-0.37-0.04-0.87-0.1-1.23c0.28-0.01,0.36,0.17,0.51,0.29
				c0.02-0.36-0.28-0.53-0.41-0.8c0.21-0.2,0.47,0.01,0.64,0.12c0.09,0.06,0.19,0.11,0.27,0.18c0.09,0.07,0.16,0.18,0.23,0.16
				C42.71,10.21,42.25,10.02,41.87,9.74z M34.44,9.24c-0.15,0.2-0.38,0.31-0.62,0.31c-0.09,0-0.18-0.01-0.27-0.04
				c-0.35-0.11-0.58-0.43-0.56-0.81c0.01-0.3,0.18-0.56,0.43-0.7c-0.65-0.09-1.56,0.15-1.84-0.38c0.38,0.28,0.98,0.11,1.42,0.1
				c0.92-0.03,1.83,0.27,2.06,1.21c-0.16-0.13-0.31-0.27-0.47-0.4C34.64,8.77,34.59,9.04,34.44,9.24z M39.44,11.14
				c-0.23-0.14-0.35-0.65-0.8-0.51c0.32-0.32,1.17-0.2,1.3,0.19C40.06,11.15,39.69,11.29,39.44,11.14z"/>
			<path class="st3" d="M34.21,8.41c-0.11-0.17-0.29-0.23-0.51-0.19c-0.23,0.05-0.4,0.25-0.41,0.49c-0.01,0.23,0.13,0.43,0.34,0.49
				c0.06,0.02,0.12,0.03,0.18,0.03c0.15,0,0.28-0.06,0.37-0.18C34.32,8.87,34.33,8.59,34.21,8.41z"/>
			<path class="st2" d="M11.55,34.38c1.69,5.61,6.93,4.01,6.93,4.01l0,0c0.09-0.02,0.19-0.05,0.28-0.07h0c0,0,3.33-0.74,5.07-1.24
				c1.73-0.5,4.06-0.66,4.06-0.66l0,0c1.82-0.07,4.15,0.25,4.57,2.03c0.3,1.29-0.73,2.13-1.54,2.45c-0.76,0.31-1.64,0.38-2.45,0.29
				c-0.76-0.08-1.53-0.32-2.32-0.53c-2.2-0.57-5.14-0.43-6.27,1.52c-0.34,0.59-0.43,1.28-0.37,1.97c0.13,1.54,1.13,2.61,2.39,3.19
				c1.21,0.56,2.64,0.78,3.99,0.8c1.32,0.02,2.51-0.05,3.66,0.37c0,0,0,0,0,0c-0.28-0.41-0.8-0.59-1.3-0.76
				c-1.29-0.43-2.77-0.6-4.12-0.96h0c-1.46-0.33-2.96-0.86-2.72-2.39c0.24-1.53,1.33-1.76,2.94-1.76c1.6,0,3.79,0.84,5.06,1.27
				c1.27,0.43,2.63,0.29,2.63,0.29v0c0.29-0.02,0.57-0.07,0.86-0.12c0.54-0.11,1.02-0.31,1.48-0.51c0,0,0,0,0,0
				c0.36-0.29,0.72-0.55,1.03-0.9c0.87-0.98,1.54-2.59,1.29-4.24c-0.33-2.14-1.75-3.54-3.17-4.56c0,0,0,0,0,0
				c-1.49,0.46-3.4,0.51-4.89,0.04c-0.14-0.04-0.29-0.16-0.41-0.16c-0.09,0-0.29,0.1-0.43,0.16c-0.16,0.06-0.31,0.11-0.43,0.16
				c-0.84,0.31-1.7,0.56-2.57,0.78c-0.07,0.02-0.13,0.03-0.2,0.04c-0.56,0.12-1.09,0.32-1.65,0.44c-1.38,0.29-2.81,0.5-4.26,0.37
				c-2.33-0.21-3.92-1.4-4.11-3.84c-0.09-1.1,0.21-2.2,0.78-2.88c0.29-0.36,0.76-0.51,1.29-0.66c1.88-0.52,3.57,0.19,4.89,0.99
				c0.94,0.57,1.77,1.19,2.67,1.79c1.74,1.16,3.75,2.37,6.27,2.61c0.36,0.03,0.69,0.05,1.01,0.04c2.83-0.1,4.62-2.02,4.81-4.71
				c0.1-1.5-0.31-3.07-0.95-4.23c-0.66-1.17-1.55-2.12-2.4-3.1c0,0,0,0,0,0c-0.45-0.35-0.84-0.79-1.29-1.17
				c-3.12-2.64-6.67-4.77-10.92-6.27c-1.14-0.4-2.21-1.03-3.15-1.75c-0.95-0.73-1.75-1.57-2.3-2.61C15,9.4,14.76,8.73,14.77,8.06
				c0.04-2.43,2.94-2.95,5.02-2.77c2.37,0.21,4.6,1.22,6.44,2.18c0,0,0,0,0,0c-0.53-0.58-1.08-1.35-0.93-2.41c0,0,0,0,0,0
				c-1.65-1.17-3.4-2.3-5.57-2.92c-0.32-0.09-0.64-0.17-0.96-0.24c-0.3-0.07-0.63-0.07-0.94-0.09c-0.33-0.01-0.56-0.04-0.93-0.02
				c-1.61,0.1-2.99,0.88-3.99,1.85c-1,0.97-1.89,2.16-1.99,3.82c-0.12,2,0.89,3.95,1.97,5.28c0,0,0,0,0,0c0.3-0.02,0.69,0,1.07,0.08
				c0.39,0.08,0.79,0.28,1.13,0.23c0,0,0,0,0,0c-0.18-0.3-0.73-0.38-0.91-0.74c0,0,0,0,0,0c0.15-0.11,0.32-0.09,0.55-0.08
				c0.75,0.05,1.5,0.27,2.04,0.72c0.27,0.23,0.54,0.38,0.9,0.51c1.03,0.37,1.71,1.2,1.81,2.4c0.07,0.83-0.29,1.5-0.66,2.04
				c0,0,0,0,0,0c2.9,1.23,5.62,2.67,8.14,4.42c0.59,0.41,1.19,0.87,1.79,1.34c0.6,0.47,1.16,0.98,1.56,1.6
				c0.38,0.59,0.71,1.48,0.66,2.28c-0.05,0.83-0.42,1.57-1.32,1.75c-0.8,0.16-1.74-0.25-2.4-0.6c-0.64-0.34-1.18-0.77-1.71-1.13
				c-1.65-1.12-3.44-2.18-5.39-2.94c-0.61-0.24-1.23-0.48-1.93-0.58c0,0,0,0,0,0c-0.16,0.22,0.07,0.42,0.1,0.66
				c0.04,0.36-0.3,0.85-0.47,1.07c0,0,0,0,0,0l-0.1,0.1c0,0,0,0,0,0c-0.25,0.21-0.55,0.36-0.91,0.46c-0.14,0.04-0.29,0.07-0.44,0.08
				l0,0c-0.34,0.03-1.08,0.06-1.36-0.31c0,0,0,0,0,0c0.11-0.16,0.31-0.11,0.49-0.16c0.33-0.08,0.74-0.36,0.88-0.58
				c0.04-0.08,0.05-0.28,0.04-0.43c-0.02-0.3-0.11-0.84-0.25-1.09c-0.07-0.13-0.2-0.25-0.29-0.37c-0.1-0.13-0.2-0.26-0.33-0.33
				c0,0,0,0,0,0c-0.34,0.39-0.17,1.14-0.43,1.62c-0.21,0.39-0.7,0.42-1.17,0.29c0,0,0,0,0,0c-1.19,1.04-2.2,2.38-2.73,4.05
				c-0.23,0.74-0.32,1.51-0.3,2.28c0.02,0.78,0.15,1.55,0.37,2.3C11.32,33.76,11.44,34.1,11.55,34.38z"/>
		</g>
	</g>
</g>
</svg>
