<svg width="360" height="120" viewBox="0 0 360 120" fill="none" xmlns="http://www.w3.org/2000/svg">
<path d="M113.267 48.3778H127.311C138.022 48.3778 145.311 55.1333 145.311 65.0444C145.311 74.9556 138.022 81.7111 127.311 81.7111H113.267V48.3778ZM127.022 77.5556C135.267 77.5556 140.533 72.5111 140.533 65.0444C140.533 57.5778 135.244 52.5333 127.022 52.5333H118.022V77.5556H127.022Z" fill="#0F232D"/>
<path d="M177.711 81.7111L170.511 71.4667C169.844 71.5111 169.133 71.5556 168.422 71.5556H160.177V81.6889H155.422V48.3556H168.422C177.089 48.3556 182.333 52.7333 182.333 59.9778C182.333 65.1111 179.666 68.8222 175 70.4889L182.911 81.6667H177.711V81.7111ZM177.577 60C177.577 55.2444 174.377 52.5333 168.289 52.5333H160.2V67.5333H168.289C174.377 67.5111 177.577 64.7556 177.577 60Z" fill="#0F232D"/>
<path d="M214.134 73.3778H196.423L192.756 81.7111H187.845L202.934 48.3778H207.645L222.778 81.7111H217.778L214.134 73.3778ZM212.467 69.5778L205.267 53.2444L198.067 69.5778H212.467V69.5778Z" fill="#0F232D"/>
<path d="M253.222 64.8444H257.8V77.8444C254.466 80.6444 249.844 82.0889 245.177 82.0889C234.933 82.0889 227.422 74.8889 227.422 65.0444C227.422 55.2 234.955 48 245.266 48C250.555 48 255.022 49.7556 258.066 53.1333L255.111 56.0889C252.355 53.4222 249.2 52.2222 245.444 52.2222C237.733 52.2222 232.155 57.6 232.155 65.0222C232.155 72.3556 237.733 77.8222 245.4 77.8222C248.2 77.8222 250.822 77.2 253.2 75.6889V64.8444H253.222Z" fill="#0F232D"/>
<path d="M267.044 65.0444C267.044 55.2889 274.577 48 284.8 48C294.933 48 302.466 55.2444 302.466 65.0444C302.466 74.8444 294.933 82.0889 284.8 82.0889C274.555 82.0889 267.044 74.8 267.044 65.0444ZM297.688 65.0444C297.688 57.6667 292.155 52.2444 284.777 52.2444C277.311 52.2444 271.777 57.6667 271.777 65.0444C271.777 72.4222 277.311 77.8444 284.777 77.8444C292.177 77.8444 297.688 72.4222 297.688 65.0444Z" fill="#0F232D"/>
<path d="M341.266 48.3778V81.7111H337.355L317.355 56.8667V81.7111H312.6V48.3778H316.511L336.511 73.2222V48.3778H341.266Z" fill="#0F232D"/>
<path d="M113.267 94.4889H114.044L116.689 101.133L119.333 94.4889H120.111L117.044 101.933H116.267L113.267 94.4889Z" fill="#0F232D"/>
<path d="M129.889 94.4889H134.866V95.1555H130.622V97.8222H134.422V98.4889H130.622V101.289H135.022V101.956H129.889V94.4889Z" fill="#0F232D"/>
<path d="M150.755 94.4889H151.489V101.933H150.711L146.089 95.6222V101.933H145.355V94.4889H146.133L150.755 100.8V94.4889Z" fill="#0F232D"/>
<path d="M161.311 94.4666H166.977V95.1333H164.511V101.911H163.777V95.1333H161.311V94.4666Z" fill="#0F232D"/>
<path d="M177.955 100.689C178.377 101.111 178.955 101.333 179.688 101.333C180.422 101.333 181 101.111 181.422 100.689C181.844 100.267 182.044 99.6666 182.044 98.8889V94.4666H182.777V98.8889C182.777 99.8444 182.511 100.622 181.955 101.156C181.422 101.711 180.666 101.978 179.688 101.978C178.733 101.978 177.955 101.711 177.422 101.156C176.866 100.6 176.6 99.8444 176.6 98.8889V94.4666H177.333V98.8889C177.333 99.6666 177.555 100.267 177.955 100.689Z" fill="#0F232D"/>
<path d="M198.378 101.933L196.778 99.5111C196.556 99.5333 196.378 99.5333 196.267 99.5333H194.223V101.933H193.489V94.4889H196.267C197.2 94.4889 197.911 94.7111 198.423 95.1333C198.934 95.5555 199.178 96.1778 199.178 96.9555C199.178 97.5778 199.023 98.0889 198.734 98.5111C198.445 98.9333 198 99.2 197.445 99.3778L199.245 101.956H198.378V101.933ZM196.267 98.8667C196.978 98.8667 197.534 98.7111 197.911 98.3778C198.289 98.0444 198.489 97.5778 198.489 96.9778C198.489 96.3778 198.289 95.9333 197.911 95.6222C197.534 95.3111 196.978 95.1555 196.267 95.1555H194.223V98.8667H196.267Z" fill="#0F232D"/>
<path d="M209.711 94.4889H214.689V95.1555H210.444V97.8222H214.244V98.4889H210.444V101.289H214.844V101.956H209.711V94.4889Z" fill="#0F232D"/>
<path d="M252.444 95.3111C252.044 95.1555 251.644 95.0666 251.222 95.0666C250.644 95.0666 250.111 95.2 249.644 95.4889C249.155 95.7555 248.777 96.1333 248.511 96.6222C248.222 97.1111 248.089 97.6222 248.089 98.2C248.089 98.7778 248.222 99.2889 248.511 99.7778C248.8 100.244 249.177 100.622 249.644 100.911C250.133 101.2 250.644 101.333 251.222 101.333C251.644 101.333 252.044 101.244 252.422 101.089C252.8 100.933 253.155 100.711 253.466 100.422L253.911 100.911C253.533 101.244 253.111 101.533 252.644 101.711C252.177 101.911 251.689 102 251.177 102C250.466 102 249.822 101.822 249.244 101.489C248.666 101.156 248.177 100.689 247.844 100.111C247.511 99.5333 247.333 98.8889 247.333 98.2C247.333 97.5111 247.511 96.8889 247.866 96.3111C248.222 95.7333 248.689 95.2889 249.289 94.9333C249.889 94.6 250.533 94.4222 251.244 94.4222C251.755 94.4222 252.244 94.5111 252.711 94.7111C253.177 94.8889 253.6 95.1555 253.955 95.4889L253.511 96C253.177 95.7111 252.844 95.4889 252.444 95.3111Z" fill="#0F232D"/>
<path d="M269.6 101.933L268.711 99.9555H264.578L263.711 101.933H262.934L266.289 94.4889H267.067L270.422 101.933H269.6ZM264.867 99.2889H268.422L266.622 95.2667L264.867 99.2889Z" fill="#0F232D"/>
<path d="M285.044 95.1333C285.555 95.5555 285.8 96.1778 285.8 96.9555C285.8 97.7778 285.555 98.4 285.044 98.8444C284.533 99.2889 283.822 99.5111 282.911 99.5111H280.889V101.911H280.155V94.4666H282.911C283.822 94.4889 284.533 94.7111 285.044 95.1333ZM284.511 98.3778C284.889 98.0444 285.089 97.5778 285.089 96.9778C285.089 96.3778 284.889 95.9333 284.511 95.6222C284.133 95.3111 283.577 95.1555 282.866 95.1555H280.889V98.8667H282.866C283.577 98.8667 284.133 98.7111 284.511 98.3778Z" fill="#0F232D"/>
<path d="M295.8 94.4889H296.533V101.933H295.8V94.4889Z" fill="#0F232D"/>
<path d="M306.333 94.4666H312V95.1333H309.533V101.911H308.8V95.1333H306.333V94.4666V94.4666Z" fill="#0F232D"/>
<path d="M326.689 101.933L325.8 99.9555H321.667L320.8 101.933H320L323.356 94.4889H324.133L327.489 101.933H326.689ZM321.956 99.2889H325.511L323.711 95.2667L321.956 99.2889Z" fill="#0F232D"/>
<path d="M337.244 94.4889H337.977V101.267H341.266V101.933H337.244V94.4889Z" fill="#0F232D"/>
<path fill-rule="evenodd" clip-rule="evenodd" d="M38.956 0C39.5115 0.377778 40.0227 0.8 40.7338 1.08889C41.7782 1.51111 43.0004 1.48889 43.8004 2.08889C44.6671 2.73333 45.0449 3.48889 45.5338 4.51111C47.6449 7.51111 51.3338 7.55556 49.5338 7.4C43.7115 6.86667 32.0893 5.84444 29.0004 9.66667C27.9338 10.9778 26.8227 11.8222 26.2449 13.4889C24.3338 18.9111 26.0227 24.5333 28.6227 28.3111C27.0004 28.3556 24.5782 28.2222 23.5115 27.5333C23.9338 26.8889 24.1115 25.8889 24.0671 24.8889C24.0449 24.2667 23.9782 23.4667 23.4671 23.1556C23.1782 23.4222 23.2004 23.9111 23.2004 24.3333C23.2449 25.3778 23.1338 26.4667 22.6893 27.1556C22.4227 26.3333 22.3782 25.4667 22.0004 24.6444C21.6671 23.9111 21.1782 23.1556 21.3115 21.8667C21.4004 20.9556 22.1115 20.2667 22.4004 19.3556C22.6227 18.6667 22.7782 17.9111 22.4893 17.2889C22.0449 17.5556 21.9338 18.1111 21.756 18.5333C21.2004 19.8889 20.3338 21.1111 19.4004 22.1111C20.0893 19.3333 19.3338 16.9556 20.956 14.5778C21.6227 13.5778 23.0449 13.2222 23.4227 12.0222C22.7338 11.8889 22.1338 12.3556 21.4671 12.5333C20.8004 12.7556 20.0893 12.8667 19.2227 12.8889C20.2227 12.0444 21.1115 11.3778 22.0004 10.4667C22.2671 10.2 22.4893 9.82222 22.7782 9.55556C23.7782 8.68889 25.7782 9.15556 26.3782 7.91111C25.8004 7.11111 24.6004 7.73333 23.556 7.91111C22.8449 8.04444 22.2227 8.06667 21.6449 8C22.5115 7.6 23.5115 7.24444 24.3782 6.57778C25.2227 5.93333 25.8449 5.13333 27.1115 5.02222C28.2449 4.91111 29.2004 5.2 29.9338 5.15556C30.4227 5.11111 31.1115 4.91111 31.1338 4.46667C31.156 4.17778 30.6671 3.91111 30.1782 3.86667C28.6449 3.73333 27.2671 3.8 25.8893 3.35556C26.0671 3.42222 26.5338 3.2 26.7338 3.13333C27.0227 3.04444 27.3115 2.93333 27.6004 2.84444C28.156 2.64444 28.7115 2.42222 29.2893 2.22222C30.356 1.88889 31.5115 1.75556 32.6004 2.04444C33.2671 2.22222 33.8227 2.64444 34.3338 2.91111C34.6227 3.06667 35.6449 3.33333 35.8004 2.86667C35.9115 2.57778 35.3338 2 35.1115 1.82222C34.2004 1.08889 32.5782 0.6 31.2227 0.266667C33.6671 0.0444444 36.6671 0.688889 38.4893 1.73333C39.0449 2.13333 39.4671 3.08889 40.4449 2.77778C40.3782 1.6 39.4671 0.888889 38.956 0Z" fill="#C2272C"/>
<path fill-rule="evenodd" clip-rule="evenodd" d="M52.8449 7.26667C52.6893 6.46667 51.8004 6.08889 51.3338 5.4C50.7115 4.51111 50.4449 3.42222 50.4227 2.2C50.8893 3.31111 51.5338 4.24444 52.3782 5.02222C53.7782 6.31111 55.7338 7.22222 56.4893 9.17778C56.6449 9.6 56.5338 10.3111 56.2227 11.2444C53.5338 9.42222 49.7115 9.06667 46.4671 7.68889C46.0004 7.48889 44.6227 2.88889 45.0671 3.55555C45.4671 4.15555 45.7782 4.17778 45.5782 3.84444C45.2004 3.22222 44.9338 2.13333 44.8004 1.51111C44.7782 1.44444 44.8449 1.42222 44.8449 1.46667C45.956 2.88889 48.1115 2.95555 49.2671 4.2C49.7338 4.71111 50.0227 5.37778 50.5115 5.88889C51.1115 6.48889 51.756 7.11111 52.8449 7.26667Z" fill="#C2272C"/>
<path fill-rule="evenodd" clip-rule="evenodd" d="M64.4448 101.422C63.2893 101.644 61.9115 101.911 61.0671 102.6C62.6893 102.778 64.1337 102.778 65.6893 103.156C68.4226 103.822 70.7782 106.044 73.8671 104.622C72.9337 106.467 69.2893 105.733 67.1559 105.489C67.4004 105.911 67.8671 106.044 68.2448 106.267C71.2893 108.133 73.7782 110.533 74.2671 114.844C73.9115 114.511 73.8226 113.889 73.3559 113.667C72.9559 114.022 72.9559 114.6 72.8893 115.044C72.6004 116.689 72.1782 117.889 71.0671 118.756C69.8226 119.756 67.9115 120.133 66.1337 119.933C67.5782 119.511 69.2448 119.067 69.4226 117.511C69.0671 117.622 68.8226 117.911 68.5559 118.111C67.6448 118.822 66.3559 119.444 64.8671 119.244C63.8448 119.089 63.0448 118.578 62.3115 118C60.5337 116.6 58.8671 115.222 56.4671 114.4C56.0226 114.244 55.5559 114.2 55.1337 113.978C57.0226 113.578 58.9559 114.356 60.4671 115.156C61.8448 115.889 62.8893 116.956 64.8004 117.2C66.1559 117.356 67.8448 117.133 68.8671 115.911C69.1559 115.267 69.4893 114.778 69.4671 113.911C69.4448 111.733 66.8671 110.6 64.6226 110.356C65.9337 111.511 67.6893 112.8 67.3559 115.2C66.7337 113.556 65.2448 112.533 63.8448 111.6C62.4448 110.667 60.7337 109.8 58.8226 109.689C59.0893 110.333 59.8004 110.556 60.3337 110.933C59.4671 110.978 58.6226 110.711 57.8226 110.467C55.5337 109.756 53.5115 108.444 52.1115 106.822C50.5782 104.556 52.1559 104.622 53.9337 103.4C54.6226 102.733 55.7337 102.378 56.8226 102.022C59.0893 101.289 62.1337 100.578 64.4448 101.422Z" fill="#C2272C"/>
<path fill-rule="evenodd" clip-rule="evenodd" d="M40.3339 53.9555C40.2005 53.3778 40.4672 52.3333 40.4672 52.0889C40.4672 51.7555 40.7561 51.3555 40.7783 51.0889C40.8227 50.6222 40.5116 50.3333 40.3561 49.9111C41.6672 50.2444 42.3783 51.4444 43.4672 52.2C44.1339 52.6667 44.845 53.1778 45.7561 53.2C45.9116 52.8222 45.5783 52.5778 45.5339 52.2444C46.8894 52.4 47.7116 53.0222 48.5561 53.7111C48.9783 54.0444 49.4227 54.5778 50.0672 54.5778C50.4227 53.7778 49.6672 52.8222 49.4227 52.2889C51.445 52.1555 52.3783 53.9111 52.9339 55.4889C53.2005 56.2889 53.4005 57.2889 54.3116 57.6C54.5783 57.4444 54.7339 57.3111 54.7783 56.9555C55.0005 55.5778 53.9339 53.8444 53.1339 53.0667C54.4894 53.7111 55.5783 54.7333 56.4672 56C57.3561 57.2667 57.5561 59.0222 58.7561 60.0222C59.0227 59.5333 58.7339 58.9111 58.5339 58.3778C58.3339 57.8444 58.1116 57.2667 57.8894 56.8222C58.0672 56.7333 58.2005 57.0444 58.3561 57.2222C59.1339 58.0222 60.0227 58.8889 60.9561 59.6C61.3339 59.8889 61.8005 60.1111 62.1339 60.4222C62.8227 61.0889 63.0672 62.0444 63.8227 62.6222C64.045 62.3111 63.645 61.4667 63.6894 61.0667C64.5561 61.3111 67.0894 60.7556 66.0672 59.3333C65.1783 59.5778 64.5116 60.7556 63.4672 60.2C63.6005 59.9333 63.8227 59.7778 64.0227 59.6C65.0005 57.6444 63.9116 55.4667 62.8894 53.7111C62.8005 54.9778 63.5339 56.2 63.2005 57.8667C62.9561 57.7333 62.9783 57.4444 62.8894 57.2222C62.5116 56.2444 62.045 55.2667 61.5561 54.3555C61.0672 53.4667 60.5561 52.5111 59.6894 52.0222C59.8227 53.1555 60.9561 54.2667 60.645 55.5778C60.1783 54.4222 59.5116 53.2444 58.6005 52.4222C58.2672 52.1111 57.7561 51.9555 57.4227 51.6C57.0672 51.2222 56.7561 50.6667 56.3783 50C56.1783 49.6444 55.6672 48.4444 55.1561 48.7778C54.6672 49.0889 55.4227 50.1333 55.5783 50.4222C55.8894 51.0444 56.1116 51.5555 56.1783 52.1555C55.4672 51.3333 54.9339 50.5555 54.0672 49.9111C53.8005 49.7111 53.4672 49.6222 53.1561 49.4C51.7561 48.3778 51.5339 45.9333 49.445 45.6444C49.8227 46.6667 51.045 47.2444 50.7783 48.6222C50.2227 47.7555 49.4894 47 48.445 46.4667C47.9116 46.2 47.3561 46.0667 46.8894 45.7778C46.0227 45.2667 45.5116 44.6222 45.0227 43.6222C44.8005 43.1778 44.5783 42.3555 43.9783 42.7111C43.845 42.9555 43.9339 43.2222 44.0227 43.4889C42.8005 42.2889 40.4227 42.4667 38.8672 41.5778C39.6672 41.1555 41.3561 40.4 41.8005 39.5778C42.2005 39.4889 43.4672 39.8889 43.5116 39.8889C48.6672 42.2222 52.5339 43.7333 57.645 47.0222C59.9561 48.5111 62.0672 50.0889 64.2005 51.9778C66.2005 53.7555 69.3116 57.6444 69.7116 60.6889C70.0005 62.8222 66.6227 66.2444 64.5116 66.2222C63.4227 66.2222 62.2005 65.4889 61.2227 65C58.2227 63.5111 55.5561 61.4667 52.8672 59.7111C49.1783 57.2889 45.245 55.1556 40.3339 53.9555Z" fill="#C2272C"/>
<path fill-rule="evenodd" clip-rule="evenodd" d="M44.7778 62.6444C41.6667 62.3111 40.0444 63.9778 38.9778 66.8222C36.0444 74.5778 45.6889 76.5111 44.8889 80.1111C39.5333 80.2444 32.8222 77.6889 32.1111 72.6667C31.8222 70.5556 31.4667 67.5111 32.4444 65.9778C33.4444 64.3778 35 62.0889 37.3778 61.9333C38.0222 61.8667 43.8444 62.6 44.7778 62.6444Z" fill="#C2272C"/>
<path fill-rule="evenodd" clip-rule="evenodd" d="M32.2224 58.1778L31.0224 60L30.3779 78.1778L38.3335 82.1333L70.7335 78.8222C70.7335 78.8222 89.3779 96.3555 68.2224 93.4667C47.0668 90.5778 44.889 99.7778 43.9112 99.3778C42.9335 98.9778 43.0668 94.2666 43.0668 94.2666C43.1779 92.7333 43.8668 91.6 44.6224 90.8444C44.2001 90.8 43.8224 91.1778 43.3779 91.2444C43.9779 89.9555 45.689 89.8 46.7112 88.9555C46.5112 88.7555 46.1112 88.7555 45.8001 88.7778C47.2001 87.6444 48.8668 88.1333 50.3779 88.0889C50.3557 87.8667 49.8446 87.7778 49.7335 87.5333C50.8668 86.8222 52.7335 87.4667 54.0224 87.7555C54.0446 87.5111 53.689 87.2667 53.5112 87.1111C54.689 86.9333 56.0668 87.2667 57.0668 87.8444C57.689 88.2 58.1779 88.6889 58.7112 89.0667C58.889 88.3111 57.9779 87.6889 57.489 87.1555C59.5557 86.8889 60.689 88.1111 61.8668 89.1111C62.1335 89.3333 62.9335 90.0667 63.1112 89.5111C63.1779 89.3111 62.9779 89.0667 62.889 88.9555C62.5112 88.4444 61.6668 88 61.3335 87.6222C62.1557 87.6 62.9112 87.8444 63.6001 88.2667C64.1112 88.5778 64.5779 88.9555 65.089 89.2666C65.3335 89.4222 65.6001 89.6 65.889 89.7111C66.2446 89.8444 66.1112 89.4 66.0001 89.2444C65.9112 89.0667 65.7557 88.9333 65.5779 88.8222C65.4001 88.7111 65.2224 88.6222 65.0224 88.5333C64.9557 88.5111 64.5557 88.2444 64.5112 88.2667C65.489 87.8667 66.2001 88.7555 67.5779 88.6667C68.0224 88.6222 68.5557 88.4889 68.9112 88.3111C69.489 88.0222 70.289 87.4889 70.2446 86.5778C69.4668 86.6 69.6446 87.5555 68.6001 87.3111C68.7112 87.0222 69.0224 86.7333 69.0668 86.3111C69.2224 85.2 68.1112 84.1111 67.2001 83.9333C66.9779 84.3778 67.3779 84.8889 67.4668 85.3111C66.9779 85.1333 66.6001 84.9111 66.2446 84.6222C65.5112 83.9778 65.1557 82.9333 64.1779 82.5555C63.7335 83 64.3335 83.5778 64.489 83.9778C63.4224 83.7778 62.8446 82.9111 61.5112 83.3333C61.7557 83.8444 62.5335 83.8444 63.0668 84.0667C61.5335 85.7111 59.3112 83.6889 57.4001 84.2889C58.3335 84.3333 59.5112 84.7555 60.2224 85.3333C59.5779 85.4444 58.9779 85.3333 58.3112 85.4667C57.5112 85.6 56.9335 86 55.9335 85.8889C54.489 85.7333 53.3557 84.5111 51.8668 84.9333C52.2668 85.7555 53.3557 85.9111 54.2446 86.2667C52.6446 86.2222 51.3557 86.8222 49.6668 86.5333C49.089 86.4444 48.6001 86.2 48.1112 85.9778C47.689 85.7778 47.1335 85.4444 46.6446 85.8C47.0001 86.6444 48.1112 86.7111 48.8446 87.1778C46.1557 87.5333 46.8224 87.6222 45.3112 87.3333C45.0224 87.2667 42.3112 86.4444 41.9112 87.2444C42.1335 87.5555 42.6224 87.5778 43.0446 87.6222C44.089 87.6889 45.1557 87.8889 45.8001 88.4C44.9557 88.6 44.089 88.5555 43.2446 88.8444C42.489 89.1111 41.6668 89.5111 40.4224 89.2666C39.5335 89.0889 38.889 88.3333 38.0224 87.9555C37.3557 87.6667 36.6224 87.4444 35.9557 87.6667C36.1779 88.1333 36.7112 88.3111 37.1335 88.5111C38.4446 89.1778 39.5779 90.1555 40.489 91.1778C37.8001 90.2222 35.3557 90.7555 33.1335 88.9111C32.2001 88.1555 32.0001 86.7111 30.8224 86.2222C30.6224 86.8889 31.0224 87.5333 31.1557 88.2C31.289 88.8889 31.3335 89.6222 31.289 90.4667C30.5557 89.4 29.9557 88.4444 29.1335 87.4889C28.889 87.2 28.5335 86.9555 28.3112 86.6222C27.5335 85.5555 28.2001 83.6 27.0224 82.8889C26.1779 83.3778 26.6668 84.6444 26.7557 85.6889C26.8224 86.4 26.7779 87.0222 26.6668 87.6C26.3335 86.6889 26.089 85.6667 25.5112 84.7555C24.9335 83.8667 24.2224 83.1555 24.2224 81.8889C24.2224 80.7555 24.5779 79.8222 24.6224 79.1111C24.6446 78.6 24.489 77.9111 24.0446 77.8444C23.7779 77.8 23.4446 78.2667 23.3557 78.7333C23.089 80.2667 23.0224 81.6222 22.4224 82.9555C22.489 82.7778 22.3335 82.2889 22.289 82.1111C22.2224 81.8 22.1557 81.5111 22.0668 81.2222C21.9112 80.6444 21.7557 80.0667 21.6224 79.4889C21.3779 78.4 21.3779 77.2444 21.7779 76.1778C22.0224 75.5333 22.489 75.0222 22.8001 74.5333C22.9779 74.2444 23.3557 73.2667 22.889 73.0667C22.6001 72.9333 21.9779 73.4667 21.8001 73.6667C21.0224 74.4444 20.3779 76 19.9112 77.3333C19.9112 75.2667 19.8446 73.9778 20.7557 72.3111C21.0224 71.8444 22.2001 70.6222 22.5557 70.2222C22.8224 69.9111 22.7779 69.4889 22.6224 69.1778C22.0446 69.2222 21.8668 69.8 21.5335 70.1333C21.1779 70.4889 20.7335 70.7111 20.2446 70.9555C20.4446 70.3555 20.6446 69.8 20.8001 69.1778C20.9557 68.5555 20.9335 67.9333 21.0224 67.3555C21.0668 67.1333 21.1335 66.8 21.2446 66.6222C21.8446 65.5778 23.5335 65.6222 23.6224 64.2C22.8001 64.4 22.0224 65.0222 20.889 65.1111C20.8001 64.9333 21.0668 64.8444 21.1557 64.7555C21.5557 64.3778 21.889 64 22.2224 63.4889C22.6446 62.8222 22.7779 62.0444 23.1335 61.3333C23.489 60.6444 24.0446 60.0667 24.689 59.7333C25.3335 59.4 26.1112 59.1778 26.5112 58.4444C25.489 58.5111 24.3779 58.9111 23.4001 58.5778C24.0446 58.0667 24.8224 57.7778 25.5112 57.1555C26.1779 56.5778 26.5335 55.7555 27.1112 55.2444C27.4001 55 27.9779 54.6889 28.289 54.6444C29.0668 54.5333 31.0224 55.6889 31.0224 55.6889L32.2224 58.1778Z" fill="#C2272C"/>
<path fill-rule="evenodd" clip-rule="evenodd" d="M69.9335 75.0222C69.9335 75.0222 85.978 74.1111 86.9335 61.8222C86.6891 56.8444 84.578 51.4667 81.3113 48.4222C75.5113 43 70.3335 38.3778 60.8002 34.4C51.2669 30.4222 30.4224 22 41.2224 12.3778C43.378 10.7333 48.8891 13.0222 47.0891 11.5111C42.9558 8.02223 32.1113 12.7778 31.8002 17.2444C31.6224 19.9111 31.8447 22.4222 33.178 24.0444C34.7113 25.9333 37.8224 27.9778 39.8002 29.2222C41.8446 30.5111 44.578 31.9556 46.9335 32.8667C50.6224 34.2889 54.0446 36.3333 57.2002 38.0667C58.2669 38.6667 59.2891 39.6667 60.2891 40.3111C66.3113 44.2 71.6669 47.9778 75.7335 53.6222C78.4891 57.4667 80.9335 61.1778 79.7558 66.2L69.9335 75.0222Z" fill="#C2272C"/>
<path fill-rule="evenodd" clip-rule="evenodd" d="M19.5335 32.7111C21.0002 34.8667 26.8668 34.8889 27.6224 34.8C32.2446 34.4 30.0002 32.3556 28.5113 31.8C26.978 31.1111 20.0668 32.2444 21.8446 31.5111C24.0224 30.6 20.978 28.1778 20.3335 27.4444C19.6891 26.7111 19.6002 25.8444 19.6446 25.0222C19.8668 25.5778 20.1557 26.2 20.5557 26.6222C22.0224 28.1778 24.8891 29.1778 27.4446 29.1333C28.7335 29.1111 29.978 29.1333 31.1557 29.3555C32.3335 29.5778 33.4668 30 34.6224 30.1333C34.978 30.1778 35.4446 30.1778 35.6224 29.9111C35.3113 28.8222 34.2002 28.5333 33.378 27.9555C35.7113 28.0444 37.4002 29.6444 38.5335 31.2444C39.2224 32.2222 39.6668 33.5556 40.8668 34.0222C41.0891 32.7333 40.0891 31.6444 39.6224 30.6C40.2224 30.8222 40.6002 31.2667 41.0891 31.6C42.8224 33.5111 43.0891 37.4444 41.2224 39.4222C39.5113 41.2444 36.378 42.3111 33.4446 42.2889C32.4446 42.2667 31.3335 42.1333 30.5557 41.6444C29.578 41.0222 28.778 39.8889 27.9113 38.9556C27.3335 38.3556 26.4002 37.6444 26.4891 39.3555C26.5335 40.1333 27.0002 40.9778 27.4002 41.6C27.778 42.2 28.3113 42.8444 28.8224 43.3778C29.8002 44.4 31.1557 45.7333 32.7113 45.8889C34.5557 46.0889 35.9557 44.9111 36.7779 43.6444C36.9779 43.3555 37.3557 42.5778 37.8668 42.6C38.3335 42.6222 38.6224 43.2889 38.9557 43.5555C39.5557 44 40.778 44.2889 41.6446 44.1556C42.2224 44.0667 42.4002 43.7333 42.9335 43.5111C43.4224 44.0222 44.2224 44.8 43.8891 45.7111C44.2002 46.9333 45.1113 48.8444 44.7113 50.2444C44.6446 50.5111 44.4668 50.8 44.1557 50.8889C44.4668 48.8889 42.378 48.2889 42.378 46.3555C42.0668 46.6444 41.6002 47.2667 41.9113 47.6444C40.8446 48.0222 40.5557 46.9111 40.4446 46.0444C39.4668 46.8 37.8224 47.4667 36.0668 47.3333C36.7113 48.4667 37.2224 49.6889 38.5335 50.2667C39.0002 50.4667 39.9557 50.4889 40.0891 51.0889C40.178 51.4444 39.8891 52.1555 39.8224 52.5555C39.7557 53.0222 39.6446 53.5778 39.6891 54.0667C39.7113 54.3778 39.8224 54.6 39.778 54.9333C39.378 57.1555 36.978 58.6222 34.7557 58C35.6002 57.6889 36.4224 57.3333 37.0891 56.8222C37.7335 56.3333 38.378 55.7333 38.4224 54.7778C37.7335 54.8667 37.5335 55.4222 37.0002 55.6444C36.9335 54.3333 36.9335 53.1778 36.4446 52.1333C35.4891 51.7778 35.2446 50.7333 34.8891 49.8C34.2224 50.2444 33.7557 51 33.5557 52.0444C33.3335 53.2444 33.3557 55.1333 31.7335 54.9778C30.9557 54.9111 30.3335 54.4 29.578 54.2C29.0891 54.0667 28.5113 54.2 28.1113 54.0222C26.9113 53.5111 26.4002 51.5555 26.3335 50.4667C26.3113 50.0444 26.2891 49.4222 26.8002 49.1333C26.778 50.0889 27.2002 50.6889 27.7113 51.3333C27.9557 51.6444 28.5557 52.4667 28.9335 52.5111C29.378 52.5555 29.8224 51.9111 30.3113 51.9111C30.8002 51.9111 31.0002 52.3333 31.5335 52.3333C31.9557 51.4 31.4224 49.8 30.8446 48.9555C30.6002 48.8444 30.4891 48.6 30.1557 48.6C29.8002 48.6 29.3557 48.8889 28.9335 48.9111C27.0891 49 25.8446 47.6667 24.9557 46.1333C26.0891 46.7555 28.1335 47.7555 29.8002 47C29.3335 46.3778 28.6224 46.4667 28.1113 46.1778C27.1557 45.6444 26.378 44.5778 25.6891 43.6222C25.3335 43.1333 24.978 42.6 24.5113 42.3333C23.6891 41.8222 22.8668 41.8667 21.778 41.6444C20.9335 41.4667 20.1113 40.9778 19.4446 40.5111C18.7557 40.0444 17.6891 39.2667 17.2891 38.5778C18.178 38.8667 19.4002 39.3111 20.2224 39.1333C17.7335 37.2 20.7335 35.7111 19.5335 32.7111Z" fill="#DB2B30"/>
<path fill-rule="evenodd" clip-rule="evenodd" d="M91.9337 57.1555C92.556 55.5333 92.3115 53.2 91.6671 51.4444C91.4004 50.6889 90.956 50.0889 91.2671 49.2444C90.6449 49.3556 90.1115 49.8 89.5337 49.4222C88.756 48.9111 89.1115 47.8 88.5782 47.3111C87.8004 46.5778 85.356 46.8 85.1115 48.1778C84.9115 49.2889 85.556 50.2 86.1115 50.8222C86.4226 51.1778 86.7782 51.4889 87.1115 51.6889C87.6671 52.0222 88.6226 52.0667 89.0226 52.6444C89.4004 53.2 89.3115 54.0667 89.6226 54.7555C89.756 55.0667 90.2893 55.4667 90.3115 55.7556C90.3782 56.4222 89.5115 56.7556 89.4449 57.2667C89.5337 57.5111 89.8449 57.5111 90.0449 57.6222C90.6004 58.5556 90.1115 59.7111 89.6226 60.6C89.3337 61.1111 89.0449 61.6444 88.7115 61.8444C89.0671 60.3555 89.0226 59.3555 88.6226 58.1333C86.5115 57.8444 88.2004 54.2 86.2004 53.7556C85.0226 51.1111 83.4004 48.8889 81.3115 47.1333C81.6893 46.9111 82.156 46.8444 82.556 46.7111C83.756 46.3111 84.9115 45.8 85.5337 44.7555C85.6449 44.0667 85.9115 43.3555 86.6671 43.8C87.0226 44.0222 87.3337 44.4 87.756 44.6667C88.2671 45 88.9337 45.4444 89.7115 45.5333C90.5337 45.6222 91.4671 45.0889 91.6671 46C91.6893 46.1556 91.6004 46.4667 91.6226 46.6889C91.7115 47.8444 92.5782 48.7333 92.9115 49.8C93.0893 50.3333 93.1115 51.0667 93.1782 51.7556C93.356 53.5778 93.4226 56.3333 91.9337 57.1555Z" fill="#DB2B30"/>
<path d="M93.0447 21.6445C93.8892 20.9111 94.5114 20.1556 94.7781 19.0445C95.3559 16.6 93.9114 14.4889 91.5336 14.2445C89.5336 14.0445 87.9781 15.6889 86.0003 15.8445C84.7114 15.9556 83.9336 15.6889 83.4003 14.9333C82.9559 14.2889 82.8892 13.4667 82.5336 12.7778C82.1781 12.1111 81.7336 11.6667 81.1114 11.1333C79.7114 10.4445 78.267 10.6445 77.0447 11.1778C76.3336 11.4889 75.7336 11.9556 74.9781 11.9556C74.467 11.9556 74.1114 11.6445 73.8447 11.6889C74.2003 12.0889 74.8003 12.5556 75.4447 12.4667C75.867 12.4222 76.2447 12.1556 76.6892 12.0445C77.9559 11.6889 79.6003 11.6 80.5336 12.4C81.1781 12.9333 81.3114 13.9111 81.7114 14.7778C82.067 15.5778 82.5559 16.3111 83.267 16.7778C85.1781 18 87.4892 16.8889 89.4225 16.1333C90.6225 15.6667 92.8003 15.3778 93.4447 16.6889C94.0447 17.8889 93.8003 19.7333 92.1559 19.8889C92.1114 19.2667 92.067 18.6667 91.6448 18.4222C91.667 18.7333 91.8225 19.6445 91.2892 19.6667C91.0003 19.6889 90.6447 19.0667 90.3781 18.8445C89.3781 18.0667 87.8448 18.0445 87.0003 18.8C86.6225 19.1333 86.4892 19.7556 86.2225 19.9333C85.467 20.4 84.6003 19.5333 83.8892 19.7556C83.5114 19.8667 83.2225 20.4667 82.8003 20.4889C82.3114 20.5333 81.9559 19.8889 81.3781 19.6667C80.867 19.4667 80.2447 19.4889 80.2447 18.9778C80.2447 18.5556 80.8447 18.4 81.067 18.0222C81.267 17.6889 81.2892 17.1778 81.2448 16.8C81.1114 15.7778 80.3559 14.7111 79.6892 13.9333C80.0003 14.5333 80.2225 16.4667 79.1559 16.4889C78.7114 16.5111 78.4003 15.9333 78.067 15.8445C77.4003 15.6667 76.8225 15.4 76.3336 14.9778C76.067 14.7556 75.8892 14.4222 75.6447 14.2C74.8892 13.5556 73.7559 13.5111 72.7559 13.2445C72.6448 13.2222 72.4225 13.1333 72.3336 13.0667C71.7559 12.7556 71.7114 12.2445 71.467 11.6445C71.1114 10.8 70.4892 10.1556 69.9336 9.60001C69.3336 9.00001 68.7114 8.44445 68.0225 7.95557C67.8892 7.86668 67.5336 7.53334 67.467 7.64445C67.9336 8.20001 68.4892 9.02223 68.8003 9.80001C69.0003 10.2889 69.2447 10.9111 68.9781 11.3556C68.0225 10.7111 67.267 9.86668 66.3781 9.11112C64.1114 7.17779 61.8225 5.22223 59.3336 3.71112C61.2447 5.73334 62.8447 8.00001 64.4447 10.3333C64.9781 11.0889 65.6447 11.9556 65.667 12.9778C65.1114 13.1111 64.7559 12.6222 64.4447 12.3333C63.7336 11.6889 63.1114 11.0667 62.4892 10.3778C62.1781 10.0445 61.9781 9.60001 61.5781 9.42223C62.0225 10.4 62.6225 11.4222 62.7114 12.6222C60.4447 9.84445 58.5336 6.66668 54.8003 5.35557C57.0892 7.62223 59.467 10.1556 60.0892 13.8445C61.1781 14.0667 62.5781 14.2 63.467 14.7556C63.667 14.8889 64.067 15.2222 64.0225 15.4889C63.9781 15.9111 63.2892 15.9556 62.7336 15.9111C59.9336 15.7333 57.867 13.2445 57.6225 10.2C56.4225 12.9111 58.3559 15.7333 60.7781 16.6C60.2003 16.6 60.0003 16.6667 59.4447 16.6889C60.2447 17.2 61.067 17.6222 61.8892 18.1111C62.4225 18.4222 62.9781 18.7111 63.4447 19.1111C63.7336 19.3556 64.5114 19.9778 64.3781 20.4222C64.2892 20.6889 63.867 20.7556 63.6892 20.7333C62.467 20.5111 61.0892 18.6667 60.4003 18C60.3336 18.1333 60.6225 18.5111 60.5336 18.6889C60.0892 18.6667 59.7781 18.1333 59.3559 17.9556C59.5336 18.3556 60.2447 18.8445 59.867 19.3778C58.8225 19.1111 58.3559 18.2667 57.667 17.6445C58.6892 20.2 60.3781 22.0889 62.6892 23.3556C61.2892 23.5556 59.9336 22.7778 58.9336 21.9778C57.4225 20.7556 56.3559 19.0889 55.0447 17.7333C54.3781 17.0445 53.667 16.3111 52.7559 16.0445C54.7114 17.1111 55.8225 19.2889 57.0447 21.3778C58.1781 23.3111 59.9336 25.3111 62.8892 25.0889C63.1114 25.0667 63.6225 24.8889 63.9781 25.0889C63.8225 25.7556 63.067 26.0889 62.8447 26.8667C62.667 27.5556 62.8225 28.4222 63.1559 28.9333C63.4225 27.6222 64.2003 26.4 65.6225 26.5556C65.4225 27.1111 65.1781 27.7111 65.2225 28.2889C65.2892 28.9778 65.8003 29.8222 66.3559 29.9778C65.8447 28.7333 66.5114 27.4445 67.6892 27.9111C68.9559 28.4 70.0447 30.1333 71.3336 30.4667C71.2447 30.1556 70.5781 29.7556 70.8225 29.2222C70.9781 28.8889 71.6892 28.8667 72.1559 28.9111C75.3559 29.2445 78.2003 32.8 77.5559 36.2667C78.1114 36.2445 77.867 35.0222 78.4225 34.8445C78.867 35.3111 79.2892 36.3556 79.0225 37.1778C78.7114 38.1556 77.467 38.0222 76.5559 37.7778C76.8225 38.4667 77.667 38.6445 78.467 38.6445C78.7559 38.6445 79.0447 38.5111 79.2003 38.7333C79.0225 39.1556 78.6225 39.3556 78.3336 39.6889C79.7114 39.6667 80.7336 39.2667 81.5336 38.6445C81.5114 39.4889 80.9336 39.8 80.5781 40.3333C81.467 40.1111 82.1114 39.6445 82.5336 39C82.8003 38.6 82.8447 38.0445 83.267 37.7556C83.667 37.9556 83.7559 38.3778 83.7336 38.8889C84.3559 38.3333 84.0003 36.9333 83.6892 36.2889C84.067 35.4889 84.2003 34.4 84.0447 33.4667C84.0003 33.2 83.867 32.7778 83.7336 32.7333C83.8892 33.6445 83.3114 34.5556 82.4892 34.7778C82.067 33.8667 82.1559 32.4445 81.4448 31.4C81.0892 30.8667 80.1781 30.4 80.2003 29.5778C80.2225 28.0667 82.6225 29.1778 83.1336 29.5778C82.8225 27.8445 80.5781 27.0222 78.3336 27.5111C76.9336 27.0667 75.9559 26.2222 75.5114 24.8222C76.5559 25.3333 77.667 25.5778 78.8447 25.5556C79.5114 25.5333 80.4447 25.2667 81.267 25.4667C82.8447 25.8445 83.0892 27.2 84.467 27.7111C84.2892 27.3111 83.7336 26.7556 83.9114 26.0222C84.1559 25.0222 85.1336 25.9778 85.6892 26.2C86.0447 26.3333 86.667 26.5111 87.2003 26.4222C87.5114 26.3556 88.1114 25.8889 88.5336 26C89.1336 26.1333 89.0447 27.2222 89.0447 27.6889C89.067 28.1333 89.1114 28.6 89.0447 29.0222C89.3559 28.8 89.667 28.3111 89.867 27.8445C90.067 27.3778 90.2892 26.7778 90.3336 26.2889C90.4003 25.6445 90.4003 24.6222 91.067 24.6C91.4225 24.6 91.8447 25.2445 92.0225 25.5111C92.3114 25.9556 92.4225 26.3556 92.7114 26.6889C92.8892 25.8667 92.6225 24.7556 92.4892 23.9556C93.1114 23.9333 93.2892 24.3333 93.6225 24.6C93.667 23.8 93.0003 23.4222 92.7114 22.8222C93.1781 22.3778 93.7559 22.8445 94.1336 23.0889C94.3336 23.2222 94.5559 23.3333 94.7336 23.4889C94.9336 23.6445 95.0892 23.8889 95.2447 23.8445C94.9114 22.6889 93.8892 22.2667 93.0447 21.6445ZM76.5336 20.5333C76.2003 20.9778 75.6892 21.2222 75.1559 21.2222C74.9559 21.2222 74.7559 21.2 74.5559 21.1333C73.7781 20.8889 73.267 20.1778 73.3114 19.3333C73.3336 18.6667 73.7114 18.0889 74.267 17.7778C72.8225 17.5778 70.8003 18.1111 70.1781 16.9333C71.0225 17.5556 72.3559 17.1778 73.3336 17.1556C75.3781 17.0889 77.4003 17.7556 77.9114 19.8445C77.5559 19.5556 77.2225 19.2445 76.867 18.9556C76.9781 19.4889 76.867 20.0889 76.5336 20.5333ZM87.6447 24.7556C87.1336 24.4445 86.867 23.3111 85.867 23.6222C86.5781 22.9111 88.467 23.1778 88.7559 24.0445C89.0225 24.7778 88.2003 25.0889 87.6447 24.7556Z" fill="#DB2B30"/>
<path d="M76.0221 18.6889C75.7777 18.3111 75.3777 18.1778 74.8888 18.2667C74.3777 18.3778 73.9999 18.8222 73.9777 19.3556C73.9555 19.8667 74.2666 20.3111 74.7332 20.4444C74.8666 20.4889 74.9999 20.5111 75.1332 20.5111C75.4666 20.5111 75.7555 20.3778 75.9555 20.1111C76.2666 19.7111 76.2888 19.0889 76.0221 18.6889Z" fill="#DB2B30"/>
<path fill-rule="evenodd" clip-rule="evenodd" d="M25.6667 76.4C29.4223 88.8667 41.0667 85.3111 41.0667 85.3111C41.2667 85.2667 41.4889 85.2 41.6889 85.1556C41.6889 85.1556 49.0889 83.5111 52.9556 82.4C56.8001 81.2889 61.9778 80.9333 61.9778 80.9333C66.0223 80.7778 71.2001 81.4889 72.1334 85.4444C72.8001 88.3111 70.5112 90.1778 68.7112 90.8889C67.0223 91.5778 65.0667 91.7333 63.2667 91.5333C61.5778 91.3556 59.8667 90.8222 58.1112 90.3556C53.2223 89.0889 46.6889 89.4 44.1778 93.7333C43.4223 95.0444 43.2223 96.5778 43.3556 98.1111C43.6445 101.533 45.8667 103.911 48.6667 105.2C51.3556 106.444 54.5334 106.933 57.5334 106.978C60.4667 107.022 63.1112 106.867 65.6667 107.8C65.0445 106.889 63.8889 106.489 62.7778 106.111C59.9112 105.156 56.6223 104.778 53.6223 103.978C50.3778 103.244 47.0445 102.067 47.5778 98.6667C48.1112 95.2667 50.5334 94.7556 54.1112 94.7556C57.6667 94.7556 62.5334 96.6222 65.3556 97.5778C68.1778 98.5333 71.2001 98.2222 71.2001 98.2222C71.8445 98.1778 72.4667 98.0667 73.1112 97.9556C74.3112 97.7111 75.3778 97.2667 76.4001 96.8222C77.2001 96.1778 78.0001 95.6 78.6889 94.8222C80.6223 92.6444 82.1112 89.0667 81.5556 85.4C80.8223 80.6444 77.6667 77.5333 74.5112 75.2667C71.2001 76.2889 66.9556 76.4 63.6445 75.3556C63.3334 75.2667 63.0001 75 62.7334 75C62.5334 75 62.0889 75.2222 61.7778 75.3556C61.4223 75.4889 61.0889 75.6 60.8223 75.7111C58.9556 76.4 57.0445 76.9556 55.1112 77.4444C54.9556 77.4889 54.8223 77.5111 54.6667 77.5333C53.4223 77.8 52.2445 78.2444 51.0001 78.5111C47.9334 79.1556 44.7556 79.6222 41.5334 79.3333C36.3556 78.8667 32.8223 76.2222 32.4001 70.8C32.2001 68.3556 32.8667 65.9111 34.1334 64.4C34.7778 63.6 35.8223 63.2667 37.0001 62.9333C41.1778 61.7778 44.9334 63.3556 47.8667 65.1333C49.9556 66.4 51.8001 67.7778 53.8001 69.1111C57.6667 71.6889 62.1334 74.3778 67.7334 74.9111C68.5334 74.9778 69.2667 75.0222 69.9778 75C76.2667 74.7778 80.2445 70.5111 80.6667 64.5333C80.8889 61.2 79.9778 57.7111 78.5556 55.1333C77.0889 52.5333 75.1112 50.4222 73.2223 48.2444C72.2223 47.4667 71.3556 46.4889 70.3556 45.6444C63.4223 39.7778 55.5334 35.0444 46.0889 31.7111C43.5556 30.8222 41.1778 29.4222 39.0889 27.8222C36.9778 26.2 35.2001 24.3333 33.9778 22.0222C33.3334 20.8889 32.8001 19.4 32.8223 17.9111C32.9112 12.5111 39.3556 11.3556 43.9778 11.7556C49.2445 12.2222 54.2001 14.4667 58.2889 16.6C57.1112 15.3111 55.8889 13.6 56.2223 11.2444C52.5556 8.64445 48.6667 6.13334 43.8445 4.75556C43.1334 4.55556 42.4223 4.37778 41.7112 4.22222C41.0445 4.06667 40.3112 4.06667 39.6223 4.02222C38.8889 4 38.3778 3.93334 37.5556 3.97778C33.9778 4.2 30.9112 5.93334 28.6889 8.08889C26.4667 10.2444 24.4889 12.8889 24.2667 16.5778C24.0001 21.0222 26.2445 25.3556 28.6445 28.3111C29.3112 28.2667 30.1778 28.3111 31.0223 28.4889C31.8889 28.6667 32.7778 29.1111 33.5334 29C33.1334 28.3333 31.9112 28.1556 31.5112 27.3556C31.8445 27.1111 32.2223 27.1556 32.7334 27.1778C34.4001 27.2889 36.0667 27.7778 37.2667 28.7778C37.8667 29.2889 38.4667 29.6222 39.2667 29.9111C41.5556 30.7333 43.0667 32.5778 43.2889 35.2444C43.4445 37.0889 42.6445 38.5778 41.8223 39.7778C48.2667 42.5111 54.3112 45.7111 59.9112 49.6C61.2223 50.5111 62.5556 51.5333 63.8889 52.5778C65.2223 53.6222 66.4667 54.7556 67.3556 56.1333C68.2001 57.4444 68.9334 59.4222 68.8223 61.2C68.7112 63.0444 67.8889 64.6889 65.8889 65.0889C64.1112 65.4444 62.0223 64.5333 60.5556 63.7556C59.1334 63 57.9334 62.0444 56.7556 61.2444C53.0889 58.7556 49.1112 56.4 44.7778 54.7111C43.4223 54.1778 42.0445 53.6444 40.4889 53.4222C40.1334 53.9111 40.6445 54.3556 40.7112 54.8889C40.8001 55.6889 40.0445 56.7778 39.6667 57.2667L39.4445 57.4889C38.8889 57.9556 38.2223 58.2889 37.4223 58.5111C37.1112 58.6 36.7778 58.6667 36.4445 58.6889C35.6889 58.7556 34.0445 58.8222 33.4223 58C33.6667 57.6444 34.1112 57.7556 34.5112 57.6444C35.2445 57.4667 36.1556 56.8444 36.4667 56.3556C36.5556 56.1778 36.5778 55.7333 36.5556 55.4C36.5112 54.7333 36.3112 53.5333 36.0001 52.9778C35.8445 52.6889 35.5556 52.4222 35.3556 52.1556C35.1334 51.8667 34.9112 51.5778 34.6223 51.4222C33.8667 52.2889 34.2445 53.9556 33.6667 55.0222C33.2001 55.8889 32.1112 55.9556 31.0667 55.6667C28.4223 57.9778 26.1778 60.9556 25.0001 64.6667C24.4889 66.3111 24.2889 68.0222 24.3334 69.7333C24.3778 71.4667 24.6667 73.1778 25.1556 74.8444C25.1556 75.0222 25.4223 75.7778 25.6667 76.4Z" fill="#DB2B30"/>
</svg>
